<svg xmlns="http://www.w3.org/2000/svg" width="48" height="48" viewBox="0 0 12.7 12.7"><path d="M3.926 4.278q-.417 0-.751.145-.331.141-.565.413-.231.269-.355.651-.124.382-.124.861 0 .634.196 1.102.2.465.593.72.396.255.989.255.338 0 .634-.055.3-.059.582-.145v.51q-.276.103-.579.152-.303.052-.72.052-.768 0-1.285-.317-.513-.32-.772-.903-.255-.582-.255-1.375 0-.572.158-1.044.162-.475.469-.82.31-.345.758-.531.451-.189 1.034-.189.382 0 .737.076.355.076.641.217l-.234.496q-.241-.11-.531-.189-.286-.083-.62-.083zM8.433 8.87L6.741 4.412h-.028q.014.141.024.345.01.203.017.444.007.238.007.486V8.87h-.544V3.833h.868L8.68 8.022h.024l1.619-4.189h.861V8.87h-.579V5.645q0-.224.007-.448.007-.227.017-.427.01-.203.021-.351h-.028L8.911 8.87z"/><path d="M1.765.265h9.171l1.5 1.5v9.171l-1.5 1.5H1.765l-1.5-1.5V1.765z" fill="none" stroke="#000" stroke-width=".529" stroke-miterlimit="8"/></svg>
